<?xml version="1.0" encoding="UTF-8" standalone="no"?>
<!-- Created with Inkscape (http://www.inkscape.org/) -->

<svg
   xmlns:osb="http://www.openswatchbook.org/uri/2009/osb"
   xmlns:dc="http://purl.org/dc/elements/1.1/"
   xmlns:cc="http://creativecommons.org/ns#"
   xmlns:rdf="http://www.w3.org/1999/02/22-rdf-syntax-ns#"
   xmlns:svg="http://www.w3.org/2000/svg"
   xmlns="http://www.w3.org/2000/svg"
   xmlns:xlink="http://www.w3.org/1999/xlink"
   xmlns:sodipodi="http://sodipodi.sourceforge.net/DTD/sodipodi-0.dtd"
   xmlns:inkscape="http://www.inkscape.org/namespaces/inkscape"
   width="356.64621"
   height="141.52583"
   viewBox="0 0 94.362645 37.445378"
   version="1.1"
   id="svg8"
   inkscape:version="0.92.1 r15371"
   sodipodi:docname="foodmatelogo.svg">
  <defs
     id="defs2">
    <linearGradient
       id="linearGradient4875-6"
       inkscape:collect="always">
      <stop
         id="stop4894"
         offset="0"
         style="stop-color:#a0892c;stop-opacity:1;" />
      <stop
         id="stop4896"
         offset="1"
         style="stop-color:#ffffff;stop-opacity:1" />
    </linearGradient>
    <linearGradient
       id="linearGradient4883"
       osb:paint="solid">
      <stop
         style="stop-color:#000000;stop-opacity:1;"
         offset="0"
         id="stop4881" />
    </linearGradient>
    <linearGradient
       inkscape:collect="always"
       xlink:href="#linearGradient4883"
       id="linearGradient4885"
       x1="-139.91672"
       y1="286.33688"
       x2="-56.6017"
       y2="286.33688"
       gradientUnits="userSpaceOnUse"
       gradientTransform="matrix(1.0411411,0,0.6266397,0.64112486,-13.239921,47.071233)" />
    <linearGradient
       inkscape:collect="always"
       xlink:href="#linearGradient4883"
       id="linearGradient4941"
       gradientUnits="userSpaceOnUse"
       gradientTransform="matrix(1.0411411,0,0.6266397,0.64112486,-13.239921,47.071235)"
       x1="-139.91672"
       y1="286.33688"
       x2="-56.6017"
       y2="286.33688" />
    <linearGradient
       inkscape:collect="always"
       xlink:href="#linearGradient4883"
       id="linearGradient4953"
       gradientUnits="userSpaceOnUse"
       gradientTransform="matrix(1.0411411,0,0.6266397,0.64112486,-13.239921,47.071237)"
       x1="-139.91672"
       y1="286.33688"
       x2="-56.6017"
       y2="286.33688" />
    <linearGradient
       inkscape:collect="always"
       xlink:href="#linearGradient4883"
       id="linearGradient4960"
       gradientUnits="userSpaceOnUse"
       gradientTransform="matrix(1.0411411,0,0.6266397,0.64112486,-13.239921,47.07124)"
       x1="-139.91672"
       y1="286.33688"
       x2="-56.6017"
       y2="286.33688" />
    <linearGradient
       inkscape:collect="always"
       xlink:href="#linearGradient4875-6"
       id="linearGradient4965"
       gradientUnits="userSpaceOnUse"
       gradientTransform="matrix(1.0411407,0,0.62663946,0.64112486,-13.239889,47.071243)"
       x1="-87.269203"
       y1="311.60513"
       x2="-82.100212"
       y2="263.46698" />
    <linearGradient
       inkscape:collect="always"
       xlink:href="#linearGradient4883"
       id="linearGradient4967"
       gradientUnits="userSpaceOnUse"
       gradientTransform="matrix(1.0411411,0,0.6266397,0.64112486,-13.239921,47.071242)"
       x1="-139.91672"
       y1="286.33688"
       x2="-56.6017"
       y2="286.33688" />
    <linearGradient
       inkscape:collect="always"
       xlink:href="#linearGradient4883"
       id="linearGradient4974"
       gradientUnits="userSpaceOnUse"
       gradientTransform="matrix(1.0411407,0,0.62663946,0.64112486,-13.239889,47.071243)"
       x1="-139.91672"
       y1="286.33688"
       x2="-56.6017"
       y2="286.33688" />
  </defs>
  <sodipodi:namedview
     id="base"
     pagecolor="#ffffff"
     bordercolor="#666666"
     borderopacity="1.0"
     inkscape:pageopacity="0.0"
     inkscape:pageshadow="2"
     inkscape:zoom="0.967"
     inkscape:cx="208.46213"
     inkscape:cy="213.92837"
     inkscape:document-units="mm"
     inkscape:current-layer="layer1"
     showgrid="false"
     units="px"
     inkscape:window-width="1920"
     inkscape:window-height="1147"
     inkscape:window-x="0"
     inkscape:window-y="25"
     inkscape:window-maximized="1" />
  <metadata
     id="metadata5">
    <rdf:RDF>
      <cc:Work
         rdf:about="">
        <dc:format>image/svg+xml</dc:format>
        <dc:type
           rdf:resource="http://purl.org/dc/dcmitype/StillImage" />
        <dc:title></dc:title>
      </cc:Work>
    </rdf:RDF>
  </metadata>
  <g
     inkscape:label="Layer 1"
     inkscape:groupmode="layer"
     id="layer1"
     transform="translate(-16.709465,-211.92613)">
    <path
       style="fill:#a0892c;fill-opacity:1;fill-rule:evenodd;stroke:url(#linearGradient4953);stroke-width:0.24189512"
       d="m 68.09164,214.24072 a 1.3969161,12.110853 32.311129 0 0 -0.158179,0.16926 1.3969161,12.110853 32.311129 0 0 -0.484762,0.55801 1.3969161,12.110853 32.311129 0 0 -0.526186,0.64097 1.3969161,12.110853 32.311129 0 0 -0.563314,0.71773 1.3969161,12.110853 32.311129 0 0 -0.594516,0.78742 1.3969161,12.110853 32.311129 0 0 -0.619805,0.84924 1.3969161,12.110853 32.311129 0 0 -0.638095,0.90234 1.3969161,12.110853 32.311129 0 0 -0.651549,0.94674 1.3969161,12.110853 32.311129 0 0 -0.656927,0.98116 1.3969161,12.110853 32.311129 0 0 -0.656929,1.00606 1.3969161,12.110853 32.311129 0 0 -0.649395,1.02141 1.3969161,12.110853 32.311129 0 0 -0.451942,0.72644 1.3969161,12.110853 32.311129 0 0 -0.622493,1.02266 1.3969161,12.110853 32.311129 0 0 -0.598822,1.0102 1.3969161,12.110853 32.311129 0 0 -0.567617,0.9874 1.3969161,12.110853 32.311129 0 0 -0.532106,0.95461 1.3969161,12.110853 32.311129 0 0 -0.491215,0.9123 1.3969161,12.110853 32.311129 0 0 -0.444948,0.86086 1.3969161,12.110853 32.311129 0 0 -0.393832,0.8007 1.3969161,12.110853 32.311129 0 0 -0.339496,0.73307 1.3969161,12.110853 32.311129 0 0 -0.281923,0.65716 1.3969161,12.110853 32.311129 0 0 -0.22059,0.57584 1.3969161,12.110853 32.311129 0 0 -0.158179,0.48788 1.3969161,12.110853 32.311129 0 0 -0.09362,0.39538 1.3969161,12.110853 32.311129 0 0 -0.02798,0.29912 1.3969161,12.110853 32.311129 0 0 0.0382,0.19955 1.3969161,12.110853 32.311129 0 0 0.102763,0.0979 1.3969161,12.110853 32.311129 0 0 0.112446,0.007 1.3969161,12.110853 32.311129 0 0 0.211982,-0.0768 1.3969161,12.110853 32.311129 0 0 0.27278,-0.17881 1.3969161,12.110853 32.311129 0 0 0.331961,-0.27838 1.3969161,12.110853 32.311129 0 0 0.386301,-0.37587 1.3969161,12.110853 32.311129 0 0 0.437951,-0.46922 1.3969161,12.110853 32.311129 0 0 0.484761,-0.558 1.3969161,12.110853 32.311129 0 0 0.526189,-0.64098 1.3969161,12.110853 32.311129 0 0 0.563312,-0.71772 1.3969161,12.110853 32.311129 0 0 0.594516,-0.78742 1.3969161,12.110853 32.311129 0 0 0.619804,-0.84924 1.3969161,12.110853 32.311129 0 0 0.638098,-0.90235 1.3969161,12.110853 32.311129 0 0 0.65101,-0.94673 1.3969161,12.110853 32.311129 0 0 0.657466,-0.98117 1.3969161,12.110853 32.311129 0 0 0.656389,-1.00647 1.3969161,12.110853 32.311129 0 0 0.649933,-1.021 1.3969161,12.110853 32.311129 0 0 0.451942,-0.72644 1.3969161,12.110853 32.311129 0 0 0.622495,-1.02307 1.3969161,12.110853 32.311129 0 0 0.598282,-1.00979 1.3969161,12.110853 32.311129 0 0 0.568154,-0.98739 1.3969161,12.110853 32.311129 0 0 0.532106,-0.95462 1.3969161,12.110853 32.311129 0 0 0.491216,-0.9123 1.3969161,12.110853 32.311129 0 0 0.444411,-0.86085 1.3969161,12.110853 32.311129 0 0 0.394371,-0.8007 1.3969161,12.110853 32.311129 0 0 0.339493,-0.73308 1.3969161,12.110853 32.311129 0 0 0.281926,-0.65757 1.3969161,12.110853 32.311129 0 0 0.216821,-0.56588 47.662999,16.940137 9.9791153 0 0 -1.452664,-0.28709 z"
       id="path4956"
       inkscape:connector-curvature="0" />
    <path
       style="fill:#a0892c;fill-opacity:1;fill-rule:evenodd;stroke:url(#linearGradient4960);stroke-width:0.24189512"
       d="m 80.238083,217.11743 a 1.3969161,12.110853 32.311129 0 0 -0.06941,0.0842 1.3969161,12.110853 32.311129 0 0 -0.563311,0.71772 1.3969161,12.110853 32.311129 0 0 -0.594517,0.78743 1.3969161,12.110853 32.311129 0 0 -0.619267,0.84924 1.3969161,12.110853 32.311129 0 0 -0.638635,0.90234 1.3969161,12.110853 32.311129 0 0 -0.65101,0.94632 1.3969161,12.110853 32.311129 0 0 -0.657466,0.98158 1.3969161,12.110853 32.311129 0 0 -0.656389,1.00606 1.3969161,12.110853 32.311129 0 0 -0.649395,1.021 1.3969161,12.110853 32.311129 0 0 -0.45248,0.72643 1.3969161,12.110853 32.311129 0 0 -0.622495,1.02307 1.3969161,12.110853 32.311129 0 0 -0.598282,1.01021 1.3969161,12.110853 32.311129 0 0 -0.568154,0.98739 1.3969161,12.110853 32.311129 0 0 -0.532106,0.95462 1.3969161,12.110853 32.311129 0 0 -0.490679,0.91188 1.3969161,12.110853 32.311129 0 0 -0.444948,0.86086 1.3969161,12.110853 32.311129 0 0 -0.394371,0.80112 1.3969161,12.110853 32.311129 0 0 -0.339493,0.73266 1.3969161,12.110853 32.311129 0 0 -0.281386,0.65756 1.3969161,12.110853 32.311129 0 0 -0.22113,0.57585 1.3969161,12.110853 32.311129 0 0 -0.157639,0.48788 1.3969161,12.110853 32.311129 0 0 -0.09362,0.39537 1.3969161,12.110853 32.311129 0 0 -0.02798,0.29912 1.3969161,12.110853 32.311129 0 0 0.03766,0.19956 1.3969161,12.110853 32.311129 0 0 0.103301,0.0979 1.3969161,12.110853 32.311129 0 0 0.111909,0.007 1.3969161,12.110853 32.311129 0 0 0.211981,-0.0768 1.3969161,12.110853 32.311129 0 0 0.273317,-0.17881 1.3969161,12.110853 32.311129 0 0 0.331422,-0.27879 1.3969161,12.110853 32.311129 0 0 0.386841,-0.37546 1.3969161,12.110853 32.311129 0 0 0.437414,-0.46922 1.3969161,12.110853 32.311129 0 0 0.484761,-0.558 1.3969161,12.110853 32.311129 0 0 0.526726,-0.64097 1.3969161,12.110853 32.311129 0 0 0.563311,-0.71814 1.3969161,12.110853 32.311129 0 0 0.594517,-0.78742 1.3969161,12.110853 32.311129 0 0 0.619267,-0.84883 1.3969161,12.110853 32.311129 0 0 0.638635,-0.90276 1.3969161,12.110853 32.311129 0 0 0.65101,-0.94632 1.3969161,12.110853 32.311129 0 0 0.656926,-0.98116 1.3969161,12.110853 32.311129 0 0 0.656929,-1.00648 1.3969161,12.110853 32.311129 0 0 0.649395,-1.02099 1.3969161,12.110853 32.311129 0 0 0.451942,-0.72644 1.3969161,12.110853 32.311129 0 0 0.623033,-1.02307 1.3969161,12.110853 32.311129 0 0 0.598282,-1.01021 1.3969161,12.110853 32.311129 0 0 0.568154,-0.98739 1.3969161,12.110853 32.311129 0 0 0.532106,-0.9542 1.3969161,12.110853 32.311129 0 0 0.490679,-0.9123 1.3969161,12.110853 32.311129 0 0 0.444947,-0.86086 1.3969161,12.110853 32.311129 0 0 0.393832,-0.80111 1.3969161,12.110853 32.311129 0 0 0.181317,-0.3904 47.662999,16.940137 9.9791154 0 0 -1.895461,-0.56878 z"
       id="path4963"
       inkscape:connector-curvature="0" />
    <path
       style="fill:#a0892c;fill-opacity:1;fill-rule:evenodd;stroke:url(#linearGradient4967);stroke-width:0.24189512"
       d="m 93.887766,222.09172 a 1.0755669,9.4831257 31.313102 0 0 -0.352407,0.4659 1.0755669,9.4831257 31.313102 0 0 -0.453017,0.62314 1.0755669,9.4831257 31.313102 0 0 -0.471847,0.67209 1.0755669,9.4831257 31.313102 0 0 -0.486375,0.71399 1.0755669,9.4831257 31.313102 0 0 -0.496059,0.74884 1.0755669,9.4831257 31.313102 0 0 -0.500901,0.77664 1.0755669,9.4831257 31.313102 0 0 -0.500361,0.79613 1.0755669,9.4831257 31.313102 0 0 -0.494984,0.80817 1.0755669,9.4831257 31.313102 0 0 -0.344336,0.57459 1.0755669,9.4831257 31.313102 0 0 -0.474536,0.80983 1.0755669,9.4831257 31.313102 0 0 -0.455707,0.79904 1.0755669,9.4831257 31.313102 0 0 -0.432571,0.7812 1.0755669,9.4831257 31.313102 0 0 -0.405672,0.75548 1.0755669,9.4831257 31.313102 0 0 -0.373926,0.72187 1.0755669,9.4831257 31.313102 0 0 -0.338956,0.68122 1.0755669,9.4831257 31.313102 0 0 -0.300217,0.63392 1.0755669,9.4831257 31.313102 0 0 -0.258792,0.57958 1.0755669,9.4831257 31.313102 0 0 -0.21467,0.52066 1.0755669,9.4831257 31.313102 0 0 -0.168402,0.45553 1.0755669,9.4831257 31.313102 0 0 -0.11998,0.38583 1.0755669,9.4831257 31.313102 0 0 -0.07156,0.31322 1.0755669,9.4831257 31.313102 0 0 -0.02099,0.23648 1.0755669,9.4831257 31.313102 0 0 0.02852,0.15765 1.0755669,9.4831257 31.313102 0 0 0.07855,0.0776 1.0755669,9.4831257 31.313102 0 0 0.08554,0.006 1.0755669,9.4831257 31.313102 0 0 0.161408,-0.061 1.0755669,9.4831257 31.313102 0 0 0.208215,-0.14147 1.0755669,9.4831257 31.313102 0 0 0.252872,-0.2203 1.0755669,9.4831257 31.313102 0 0 0.2943,-0.29746 1.0755669,9.4831257 31.313102 0 0 0.333576,-0.37131 1.0755669,9.4831257 31.313102 0 0 0.369084,-0.44142 1.0755669,9.4831257 31.313102 0 0 0.401366,-0.50739 1.0755669,9.4831257 31.313102 0 0 0.429342,-0.56796 1.0755669,9.4831257 31.313102 0 0 0.452479,-0.62313 1.0755669,9.4831257 31.313102 0 0 0.472388,-0.67209 1.0755669,9.4831257 31.313102 0 0 0.486372,-0.71399 1.0755669,9.4831257 31.313102 0 0 0.496059,-0.74884 1.0755669,9.4831257 31.313102 0 0 0.500364,-0.77664 1.0755669,9.4831257 31.313102 0 0 0.500361,-0.79614 1.0755669,9.4831257 31.313102 0 0 0.494984,-0.80816 1.0755669,9.4831257 31.313102 0 0 0.344335,-0.5746 1.0755669,9.4831257 31.313102 0 0 0.474539,-0.80983 1.0755669,9.4831257 31.313102 0 0 0.455705,-0.79904 1.0755669,9.4831257 31.313102 0 0 0.433111,-0.78161 1.0755669,9.4831257 31.313102 0 0 0.405132,-0.75506 1.0755669,9.4831257 31.313102 0 0 0.374466,-0.72188 1.0755669,9.4831257 31.313102 0 0 0.338416,-0.68122 1.0755669,9.4831257 31.313102 0 0 0.266323,-0.56215 47.662999,16.940137 9.9791154 0 0 -1.401554,-0.66213 z"
       id="path4970"
       inkscape:connector-curvature="0" />
    <path
       style="fill:url(#linearGradient4965);fill-opacity:1;fill-rule:evenodd;stroke:url(#linearGradient4974);stroke-width:0.242;stroke-miterlimit:4;stroke-dasharray:none"
       d="m 45.39831,212.03693 a 47.662982,16.940136 9.9791206 0 0 -24.880937,18.61191 47.662982,16.940136 9.9791206 0 0 61.566666,18.61646 47.662982,16.940136 9.9791206 0 0 25.175771,-18.61646 47.662982,16.940136 9.9791206 0 0 -11.970496,-7.89499 1.0755666,9.4831249 31.313091 0 1 -0.266323,0.56216 1.0755666,9.4831249 31.313091 0 1 -0.338423,0.68122 1.0755666,9.4831249 31.313091 0 1 -0.374468,0.72187 1.0755666,9.4831249 31.313091 0 1 -0.405128,0.75506 1.0755666,9.4831249 31.313091 0 1 -0.433105,0.78161 1.0755666,9.4831249 31.313091 0 1 -0.455707,0.79905 1.0755666,9.4831249 31.313091 0 1 -0.474542,0.80982 1.0755666,9.4831249 31.313091 0 1 -0.344336,0.5746 1.0755666,9.4831249 31.313091 0 1 -0.49498,0.80817 1.0755666,9.4831249 31.313091 0 1 -0.500362,0.79613 1.0755666,9.4831249 31.313091 0 1 -0.500366,0.77664 1.0755666,9.4831249 31.313091 0 1 -0.496058,0.74884 1.0755666,9.4831249 31.313091 0 1 -0.486372,0.71399 1.0755666,9.4831249 31.313091 0 1 -0.472388,0.67209 1.0755666,9.4831249 31.313091 0 1 -0.452479,0.62313 1.0755666,9.4831249 31.313091 0 1 -0.429342,0.56796 1.0755666,9.4831249 31.313091 0 1 -0.401366,0.50739 1.0755666,9.4831249 31.313091 0 1 -0.369084,0.44142 1.0755666,9.4831249 31.313091 0 1 -0.333575,0.37131 1.0755666,9.4831249 31.313091 0 1 -0.2943,0.29746 1.0755666,9.4831249 31.313091 0 1 -0.252872,0.2203 1.0755666,9.4831249 31.313091 0 1 -0.208216,0.14147 1.0755666,9.4831249 31.313091 0 1 -0.161408,0.061 1.0755666,9.4831249 31.313091 0 1 -0.08554,-0.006 1.0755666,9.4831249 31.313091 0 1 -0.07855,-0.0776 1.0755666,9.4831249 31.313091 0 1 -0.02852,-0.15765 1.0755666,9.4831249 31.313091 0 1 0.02099,-0.23647 1.0755666,9.4831249 31.313091 0 1 0.07156,-0.31323 1.0755666,9.4831249 31.313091 0 1 0.11998,-0.38583 1.0755666,9.4831249 31.313091 0 1 0.168403,-0.45553 1.0755666,9.4831249 31.313091 0 1 0.21467,-0.52066 1.0755666,9.4831249 31.313091 0 1 0.258791,-0.57957 1.0755666,9.4831249 31.313091 0 1 0.300217,-0.63392 1.0755666,9.4831249 31.313091 0 1 0.338955,-0.68122 1.0755666,9.4831249 31.313091 0 1 0.373927,-0.72187 1.0755666,9.4831249 31.313091 0 1 0.405671,-0.75549 1.0755666,9.4831249 31.313091 0 1 0.432571,-0.7812 1.0755666,9.4831249 31.313091 0 1 0.455708,-0.79903 1.0755666,9.4831249 31.313091 0 1 0.474535,-0.80983 1.0755666,9.4831249 31.313091 0 1 0.344336,-0.5746 1.0755666,9.4831249 31.313091 0 1 0.494983,-0.80816 1.0755666,9.4831249 31.313091 0 1 0.500358,-0.79614 1.0755666,9.4831249 31.313091 0 1 0.500903,-0.77664 1.0755666,9.4831249 31.313091 0 1 0.496063,-0.74884 1.0755666,9.4831249 31.313091 0 1 0.486369,-0.71399 1.0755666,9.4831249 31.313091 0 1 0.471845,-0.67209 1.0755666,9.4831249 31.313091 0 1 0.453021,-0.62313 1.0755666,9.4831249 31.313091 0 1 0.352406,-0.4659 47.662982,16.940136 9.9791206 0 0 -11.754217,-4.40551 1.3969157,12.110851 32.311118 0 1 -0.181316,0.39039 1.3969157,12.110851 32.311118 0 1 -0.393831,0.80112 1.3969157,12.110851 32.311118 0 1 -0.444948,0.86085 1.3969157,12.110851 32.311118 0 1 -0.490679,0.9123 1.3969157,12.110851 32.311118 0 1 -0.532105,0.9542 1.3969157,12.110851 32.311118 0 1 -0.568154,0.98739 1.3969157,12.110851 32.311118 0 1 -0.598281,1.01021 1.3969157,12.110851 32.311118 0 1 -0.623034,1.02307 1.3969157,12.110851 32.311118 0 1 -0.451941,0.72644 1.3969157,12.110851 32.311118 0 1 -0.649395,1.021 1.3969157,12.110851 32.311118 0 1 -0.656929,1.00648 1.3969157,12.110851 32.311118 0 1 -0.656926,0.98116 1.3969157,12.110851 32.311118 0 1 -0.651009,0.94632 1.3969157,12.110851 32.311118 0 1 -0.638636,0.90276 1.3969157,12.110851 32.311118 0 1 -0.619266,0.84882 1.3969157,12.110851 32.311118 0 1 -0.594516,0.78742 1.3969157,12.110851 32.311118 0 1 -0.563311,0.71815 1.3969157,12.110851 32.311118 0 1 -0.526726,0.64097 1.3969157,12.110851 32.311118 0 1 -0.484762,0.558 1.3969157,12.110851 32.311118 0 1 -0.437413,0.46922 1.3969157,12.110851 32.311118 0 1 -0.38684,0.37546 1.3969157,12.110851 32.311118 0 1 -0.331423,0.27879 1.3969157,12.110851 32.311118 0 1 -0.273316,0.17881 1.3969157,12.110851 32.311118 0 1 -0.211981,0.0767 1.3969157,12.110851 32.311118 0 1 -0.111909,-0.007 1.3969157,12.110851 32.311118 0 1 -0.103303,-0.0979 1.3969157,12.110851 32.311118 0 1 -0.03766,-0.19956 1.3969157,12.110851 32.311118 0 1 0.02798,-0.29912 1.3969157,12.110851 32.311118 0 1 0.09362,-0.39537 1.3969157,12.110851 32.311118 0 1 0.157641,-0.48789 1.3969157,12.110851 32.311118 0 1 0.221128,-0.57584 1.3969157,12.110851 32.311118 0 1 0.281387,-0.65757 1.3969157,12.110851 32.311118 0 1 0.339492,-0.73266 1.3969157,12.110851 32.311118 0 1 0.394372,-0.80112 1.3969157,12.110851 32.311118 0 1 0.444948,-0.86085 1.3969157,12.110851 32.311118 0 1 0.490677,-0.91189 1.3969157,12.110851 32.311118 0 1 0.532107,-0.95461 1.3969157,12.110851 32.311118 0 1 0.568153,-0.98739 1.3969157,12.110851 32.311118 0 1 0.598282,-1.01021 1.3969157,12.110851 32.311118 0 1 0.622495,-1.02307 1.3969157,12.110851 32.311118 0 1 0.45248,-0.72644 1.3969157,12.110851 32.311118 0 1 0.649394,-1.021 1.3969157,12.110851 32.311118 0 1 0.656389,-1.00605 1.3969157,12.110851 32.311118 0 1 0.657466,-0.98158 1.3969157,12.110851 32.311118 0 1 0.651009,-0.94632 1.3969157,12.110851 32.311118 0 1 0.638635,-0.90235 1.3969157,12.110851 32.311118 0 1 0.619268,-0.84924 1.3969157,12.110851 32.311118 0 1 0.594515,-0.78742 1.3969157,12.110851 32.311118 0 1 0.563312,-0.71772 1.3969157,12.110851 32.311118 0 1 0.0694,-0.0842 47.662982,16.940136 9.9791206 0 0 -10.693774,-2.58962 1.3969157,12.11085 32.311118 0 1 -0.216821,0.56589 1.3969157,12.11085 32.311118 0 1 -0.281926,0.65757 1.3969157,12.11085 32.311118 0 1 -0.339493,0.73307 1.3969157,12.11085 32.311118 0 1 -0.394371,0.8007 1.3969157,12.11085 32.311118 0 1 -0.444411,0.86086 1.3969157,12.11085 32.311118 0 1 -0.491215,0.9123 1.3969157,12.11085 32.311118 0 1 -0.532106,0.95461 1.3969157,12.11085 32.311118 0 1 -0.568153,0.98739 1.3969157,12.11085 32.311118 0 1 -0.598283,1.00979 1.3969157,12.11085 32.311118 0 1 -0.622495,1.02308 1.3969157,12.11085 32.311118 0 1 -0.451942,0.72644 1.3969157,12.11085 32.311118 0 1 -0.649932,1.02099 1.3969157,12.11085 32.311118 0 1 -0.656388,1.00648 1.3969157,12.11085 32.311118 0 1 -0.657466,0.98116 1.3969157,12.11085 32.311118 0 1 -0.65101,0.94674 1.3969157,12.11085 32.311118 0 1 -0.638098,0.90234 1.3969157,12.11085 32.311118 0 1 -0.619804,0.84924 1.3969157,12.11085 32.311118 0 1 -0.594516,0.78743 1.3969157,12.11085 32.311118 0 1 -0.563311,0.71772 1.3969157,12.11085 32.311118 0 1 -0.526188,0.64097 1.3969157,12.11085 32.311118 0 1 -0.484762,0.558 1.3969157,12.11085 32.311118 0 1 -0.437951,0.46922 1.3969157,12.11085 32.311118 0 1 -0.386301,0.37588 1.3969157,12.11085 32.311118 0 1 -0.331961,0.27837 1.3969157,12.11085 32.311118 0 1 -0.27278,0.17881 1.3969157,12.11085 32.311118 0 1 -0.211981,0.0768 1.3969157,12.11085 32.311118 0 1 -0.112446,-0.007 1.3969157,12.11085 32.311118 0 1 -0.102761,-0.0979 1.3969157,12.11085 32.311118 0 1 -0.0382,-0.19955 1.3969157,12.11085 32.311118 0 1 0.02797,-0.29912 1.3969157,12.11085 32.311118 0 1 0.09362,-0.39538 1.3969157,12.11085 32.311118 0 1 0.158179,-0.48788 1.3969157,12.11085 32.311118 0 1 0.22059,-0.57584 1.3969157,12.11085 32.311118 0 1 0.281922,-0.65715 1.3969157,12.11085 32.311118 0 1 0.339497,-0.73308 1.3969157,12.11085 32.311118 0 1 0.393831,-0.8007 1.3969157,12.11085 32.311118 0 1 0.444947,-0.86086 1.3969157,12.11085 32.311118 0 1 0.491216,-0.91229 1.3969157,12.11085 32.311118 0 1 0.532106,-0.95462 1.3969157,12.11085 32.311118 0 1 0.567617,-0.98739 1.3969157,12.11085 32.311118 0 1 0.598822,-1.0102 1.3969157,12.11085 32.311118 0 1 0.622492,-1.02266 1.3969157,12.11085 32.311118 0 1 0.451941,-0.72644 1.3969157,12.11085 32.311118 0 1 0.649395,-1.02141 1.3969157,12.11085 32.311118 0 1 0.656929,-1.00606 1.3969157,12.11085 32.311118 0 1 0.656927,-0.98117 1.3969157,12.11085 32.311118 0 1 0.651549,-0.94673 1.3969157,12.11085 32.311118 0 1 0.638095,-0.90235 1.3969157,12.11085 32.311118 0 1 0.619804,-0.84923 1.3969157,12.11085 32.311118 0 1 0.594516,-0.78743 1.3969157,12.11085 32.311118 0 1 0.563313,-0.71772 1.3969157,12.11085 32.311118 0 1 0.526187,-0.64098 1.3969157,12.11085 32.311118 0 1 0.484761,-0.558 1.3969157,12.11085 32.311118 0 1 0.15818,-0.16926 47.662982,16.940136 9.9791206 0 0 -8.856419,-1.35041 1.3969157,12.11085 32.311118 0 1 -0.214673,0.46382 1.3969157,12.11085 32.311118 0 1 -0.394372,0.80071 1.3969157,12.11085 32.311118 0 1 -0.444407,0.86085 1.3969157,12.11085 32.311118 0 1 -0.491218,0.9123 1.3969157,12.11085 32.311118 0 1 -0.532107,0.95461 1.3969157,12.11085 32.311118 0 1 -0.568153,0.9874 1.3969157,12.11085 32.311118 0 1 -0.598282,1.00979 1.3969157,12.11085 32.311118 0 1 -0.622495,1.02307 1.3969157,12.11085 32.311118 0 1 -0.451939,0.72644 1.3969157,12.11085 32.311118 0 1 -0.649935,1.021 1.3969157,12.11085 32.311118 0 1 -0.656389,1.00647 1.3969157,12.11085 32.311118 0 1 -0.657466,0.98116 1.3969157,12.11085 32.311118 0 1 -0.651009,0.94674 1.3969157,12.11085 32.311118 0 1 -0.638635,0.90234 1.3969157,12.11085 32.311118 0 1 -0.619268,0.84924 1.3969157,12.11085 32.311118 0 1 -0.594515,0.78743 1.3969157,12.11085 32.311118 0 1 -0.563312,0.71772 1.3969157,12.11085 32.311118 0 1 -0.526725,0.64098 1.3969157,12.11085 32.311118 0 1 -0.484222,0.558 1.3969157,12.11085 32.311118 0 1 -0.437954,0.46921 1.3969157,12.11085 32.311118 0 1 -0.386299,0.37588 1.3969157,12.11085 32.311118 0 1 -0.331962,0.27838 1.3969157,12.11085 32.311118 0 1 -0.272778,0.1788 1.3969157,12.11085 32.311118 0 1 -0.212521,0.0768 1.3969157,12.11085 32.311118 0 1 -0.111909,-0.007 1.3969157,12.11085 32.311118 0 1 -0.10276,-0.0979 1.3969157,12.11085 32.311118 0 1 -0.0382,-0.19955 1.3969157,12.11085 32.311118 0 1 0.02798,-0.29912 1.3969157,12.11085 32.311118 0 1 0.09362,-0.39537 1.3969157,12.11085 32.311118 0 1 0.158179,-0.48789 1.3969157,12.11085 32.311118 0 1 0.22059,-0.57584 1.3969157,12.11085 32.311118 0 1 0.281926,-0.65716 1.3969157,12.11085 32.311118 0 1 0.339493,-0.73307 1.3969157,12.11085 32.311118 0 1 0.393834,-0.8007 1.3969157,12.11085 32.311118 0 1 0.444945,-0.86085 1.3969157,12.11085 32.311118 0 1 0.490679,-0.91231 1.3969157,12.11085 32.311118 0 1 0.532646,-0.95461 1.3969157,12.11085 32.311118 0 1 0.567613,-0.98739 1.3969157,12.11085 32.311118 0 1 0.598284,-1.01021 1.3969157,12.11085 32.311118 0 1 0.623033,-1.02265 1.3969157,12.11085 32.311118 0 1 0.451939,-0.72644 1.3969157,12.11085 32.311118 0 1 0.649395,-1.02141 1.3969157,12.11085 32.311118 0 1 0.656929,-1.00606 1.3969157,12.11085 32.311118 0 1 0.656926,-0.98117 1.3969157,12.11085 32.311118 0 1 0.651012,-0.94674 1.3969157,12.11085 32.311118 0 1 0.638633,-0.90234 1.3969157,12.11085 32.311118 0 1 0.619804,-0.84924 1.3969157,12.11085 32.311118 0 1 0.593981,-0.78742 1.3969157,12.11085 32.311118 0 1 0.425577,-0.54224 47.662982,16.940136 9.9791206 0 0 -9.819484,-0.58828 1.0755664,9.4831241 31.313091 0 1 -0.256638,0.5414 1.0755664,9.4831241 31.313091 0 1 -0.338955,0.68122 1.0755664,9.4831241 31.313091 0 1 -0.373927,0.72187 1.0755664,9.4831241 31.313091 0 1 -0.405131,0.75548 1.0755664,9.4831241 31.313091 0 1 -0.433111,0.7812 1.0755664,9.4831241 31.313091 0 1 -0.455705,0.79945 1.0755664,9.4831241 31.313091 0 1 -0.474538,0.80942 1.0755664,9.4831241 31.313091 0 1 -0.344336,0.57459 1.0755664,9.4831241 31.313091 0 1 -0.494983,0.80817 1.0755664,9.4831241 31.313091 0 1 -0.500361,0.79614 1.0755664,9.4831241 31.313091 0 1 -0.500364,0.77663 1.0755664,9.4831241 31.313091 0 1 -0.496058,0.74885 1.0755664,9.4831241 31.313091 0 1 -0.486913,0.7144 1.0755664,9.4831241 31.313091 0 1 -0.471847,0.67168 1.0755664,9.4831241 31.313091 0 1 -0.453016,0.62313 1.0755664,9.4831241 31.313091 0 1 -0.428806,0.56796 1.0755664,9.4831241 31.313091 0 1 -0.401366,0.50738 1.0755664,9.4831241 31.313091 0 1 -0.369083,0.44143 1.0755664,9.4831241 31.313091 0 1 -0.333576,0.37131 1.0755664,9.4831241 31.313091 0 1 -0.294839,0.29746 1.0755664,9.4831241 31.313091 0 1 -0.252332,0.2203 1.0755664,9.4831241 31.313091 0 1 -0.208216,0.14146 1.0755664,9.4831241 31.313091 0 1 -0.161408,0.061 1.0755664,9.4831241 31.313091 0 1 -0.08554,-0.006 1.0755664,9.4831241 31.313091 0 1 -0.07855,-0.0776 1.0755664,9.4831241 31.313091 0 1 -0.02852,-0.15807 1.0755664,9.4831241 31.313091 0 1 0.02099,-0.23647 1.0755664,9.4831241 31.313091 0 1 0.07102,-0.31323 1.0755664,9.4831241 31.313091 0 1 0.120518,-0.38583 1.0755664,9.4831241 31.313091 0 1 0.168402,-0.45553 1.0755664,9.4831241 31.313091 0 1 0.21467,-0.52025 1.0755664,9.4831241 31.313091 0 1 0.258791,-0.57999 1.0755664,9.4831241 31.313091 0 1 0.300216,-0.63392 1.0755664,9.4831241 31.313091 0 1 0.338956,-0.68121 1.0755664,9.4831241 31.313091 0 1 0.373927,-0.72188 1.0755664,9.4831241 31.313091 0 1 0.405131,-0.75506 1.0755664,9.4831241 31.313091 0 1 0.433112,-0.78162 1.0755664,9.4831241 31.313091 0 1 0.455707,-0.79904 1.0755664,9.4831241 31.313091 0 1 0.474536,-0.80941 1.0755664,9.4831241 31.313091 0 1 0.344335,-0.57501 1.0755664,9.4831241 31.313091 0 1 0.494984,-0.80816 1.0755664,9.4831241 31.313091 0 1 0.500361,-0.79614 1.0755664,9.4831241 31.313091 0 1 0.500901,-0.77664 1.0755664,9.4831241 31.313091 0 1 0.496058,-0.74884 1.0755664,9.4831241 31.313091 0 1 0.486375,-0.71399 1.0755664,9.4831241 31.313091 0 1 0.471847,-0.6721 1.0755664,9.4831241 31.313091 0 1 0.316359,-0.43519 z"
       id="path4944"
       inkscape:connector-curvature="0" />
    <path
       style="fill:#a0892c;fill-opacity:1;fill-rule:evenodd;stroke:url(#linearGradient4941);stroke-width:0.24189512"
       d="m 57.098722,212.65426 a 1.3969161,12.110853 32.311129 0 0 -0.425577,0.54223 1.3969161,12.110853 32.311129 0 0 -0.593982,0.78742 1.3969161,12.110853 32.311129 0 0 -0.619804,0.84924 1.3969161,12.110853 32.311129 0 0 -0.638633,0.90235 1.3969161,12.110853 32.311129 0 0 -0.651012,0.94673 1.3969161,12.110853 32.311129 0 0 -0.656926,0.98117 1.3969161,12.110853 32.311129 0 0 -0.656929,1.00606 1.3969161,12.110853 32.311129 0 0 -0.649396,1.02141 1.3969161,12.110853 32.311129 0 0 -0.451939,0.72644 1.3969161,12.110853 32.311129 0 0 -0.623033,1.02265 1.3969161,12.110853 32.311129 0 0 -0.598284,1.01021 1.3969161,12.110853 32.311129 0 0 -0.567614,0.98739 1.3969161,12.110853 32.311129 0 0 -0.532646,0.95462 1.3969161,12.110853 32.311129 0 0 -0.490679,0.9123 1.3969161,12.110853 32.311129 0 0 -0.444945,0.86085 1.3969161,12.110853 32.311129 0 0 -0.393835,0.8007 1.3969161,12.110853 32.311129 0 0 -0.339493,0.73308 1.3969161,12.110853 32.311129 0 0 -0.281925,0.65715 1.3969161,12.110853 32.311129 0 0 -0.22059,0.57584 1.3969161,12.110853 32.311129 0 0 -0.158179,0.48789 1.3969161,12.110853 32.311129 0 0 -0.09362,0.39537 1.3969161,12.110853 32.311129 0 0 -0.02798,0.29912 1.3969161,12.110853 32.311129 0 0 0.0382,0.19955 1.3969161,12.110853 32.311129 0 0 0.102761,0.0979 1.3969161,12.110853 32.311129 0 0 0.111909,0.007 1.3969161,12.110853 32.311129 0 0 0.212521,-0.0768 1.3969161,12.110853 32.311129 0 0 0.272777,-0.17881 1.3969161,12.110853 32.311129 0 0 0.331962,-0.27838 1.3969161,12.110853 32.311129 0 0 0.386301,-0.37587 1.3969161,12.110853 32.311129 0 0 0.437953,-0.46922 1.3969161,12.110853 32.311129 0 0 0.484222,-0.558 1.3969161,12.110853 32.311129 0 0 0.526726,-0.64097 1.3969161,12.110853 32.311129 0 0 0.563311,-0.71773 1.3969161,12.110853 32.311129 0 0 0.594517,-0.78742 1.3969161,12.110853 32.311129 0 0 0.619267,-0.84924 1.3969161,12.110853 32.311129 0 0 0.638635,-0.90234 1.3969161,12.110853 32.311129 0 0 0.651009,-0.94674 1.3969161,12.110853 32.311129 0 0 0.657467,-0.98117 1.3969161,12.110853 32.311129 0 0 0.656389,-1.00647 1.3969161,12.110853 32.311129 0 0 0.649935,-1.021 1.3969161,12.110853 32.311129 0 0 0.451939,-0.72643 1.3969161,12.110853 32.311129 0 0 0.622496,-1.02307 1.3969161,12.110853 32.311129 0 0 0.598282,-1.0098 1.3969161,12.110853 32.311129 0 0 0.568154,-0.98739 1.3969161,12.110853 32.311129 0 0 0.532106,-0.95461 1.3969161,12.110853 32.311129 0 0 0.491218,-0.9123 1.3969161,12.110853 32.311129 0 0 0.444408,-0.86086 1.3969161,12.110853 32.311129 0 0 0.394372,-0.8007 1.3969161,12.110853 32.311129 0 0 0.214673,-0.46382 47.662999,16.940137 9.9791153 0 0 -2.136496,-0.23607 z"
       id="path4911"
       inkscape:connector-curvature="0" />
    <path
       style="fill:#a0892c;fill-opacity:1;fill-rule:evenodd;stroke:url(#linearGradient4885);stroke-width:0.24189512"
       d="m 45.398302,212.03693 a 1.0755667,9.4831257 31.313102 0 0 -0.31636,0.4352 1.0755667,9.4831257 31.313102 0 0 -0.471847,0.67209 1.0755667,9.4831257 31.313102 0 0 -0.486376,0.71399 1.0755667,9.4831257 31.313102 0 0 -0.496058,0.74884 1.0755667,9.4831257 31.313102 0 0 -0.500901,0.77664 1.0755667,9.4831257 31.313102 0 0 -0.500361,0.79613 1.0755667,9.4831257 31.313102 0 0 -0.494984,0.80817 1.0755667,9.4831257 31.313102 0 0 -0.344336,0.57501 1.0755667,9.4831257 31.313102 0 0 -0.474536,0.80941 1.0755667,9.4831257 31.313102 0 0 -0.455707,0.79904 1.0755667,9.4831257 31.313102 0 0 -0.433111,0.78162 1.0755667,9.4831257 31.313102 0 0 -0.405132,0.75506 1.0755667,9.4831257 31.313102 0 0 -0.373927,0.72187 1.0755667,9.4831257 31.313102 0 0 -0.338955,0.68122 1.0755667,9.4831257 31.313102 0 0 -0.300217,0.63392 1.0755667,9.4831257 31.313102 0 0 -0.258792,0.57999 1.0755667,9.4831257 31.313102 0 0 -0.21467,0.52025 1.0755667,9.4831257 31.313102 0 0 -0.168402,0.45553 1.0755667,9.4831257 31.313102 0 0 -0.120517,0.38582 1.0755667,9.4831257 31.313102 0 0 -0.07102,0.31323 1.0755667,9.4831257 31.313102 0 0 -0.02099,0.23648 1.0755667,9.4831257 31.313102 0 0 0.02852,0.15806 1.0755667,9.4831257 31.313102 0 0 0.07855,0.0776 1.0755667,9.4831257 31.313102 0 0 0.08554,0.006 1.0755667,9.4831257 31.313102 0 0 0.161408,-0.061 1.0755667,9.4831257 31.313102 0 0 0.208215,-0.14147 1.0755667,9.4831257 31.313102 0 0 0.252332,-0.2203 1.0755667,9.4831257 31.313102 0 0 0.29484,-0.29746 1.0755667,9.4831257 31.313102 0 0 0.333576,-0.37131 1.0755667,9.4831257 31.313102 0 0 0.369083,-0.44142 1.0755667,9.4831257 31.313102 0 0 0.401366,-0.50739 1.0755667,9.4831257 31.313102 0 0 0.428806,-0.56795 1.0755667,9.4831257 31.313102 0 0 0.453016,-0.62314 1.0755667,9.4831257 31.313102 0 0 0.471848,-0.67168 1.0755667,9.4831257 31.313102 0 0 0.486912,-0.7144 1.0755667,9.4831257 31.313102 0 0 0.496059,-0.74884 1.0755667,9.4831257 31.313102 0 0 0.500364,-0.77664 1.0755667,9.4831257 31.313102 0 0 0.500361,-0.79614 1.0755667,9.4831257 31.313102 0 0 0.494984,-0.80816 1.0755667,9.4831257 31.313102 0 0 0.344335,-0.5746 1.0755667,9.4831257 31.313102 0 0 0.474539,-0.80941 1.0755667,9.4831257 31.313102 0 0 0.455705,-0.79945 1.0755667,9.4831257 31.313102 0 0 0.433111,-0.78121 1.0755667,9.4831257 31.313102 0 0 0.405132,-0.75547 1.0755667,9.4831257 31.313102 0 0 0.373926,-0.72188 1.0755667,9.4831257 31.313102 0 0 0.338956,-0.68121 1.0755667,9.4831257 31.313102 0 0 0.256638,-0.54141 47.662999,16.940137 9.9791153 0 0 -1.586633,-0.0336 47.662999,16.940137 9.9791153 0 0 -0.2943,0.005 z"
       id="path3688"
       inkscape:connector-curvature="0" />
  </g>
</svg>
